<svg width="42" height="42" viewBox="0 0 36 36" fill="none" xmlns="http://www.w3.org/2000/svg">
<path fill-rule="evenodd" clip-rule="evenodd" d="M11.7825 13.9038C11.1967 13.318 11.1967 12.3683 11.7825 11.7825C12.3683 11.1967 13.318 11.1967 13.9038 11.7825L18.5 16.3787L23.0962 11.7825C23.682 11.1967 24.6317 11.1967 25.2175 11.7825C25.8033 12.3683 25.8033 13.318 25.2175 13.9038L20.6213 18.5L25.2175 23.0962C25.8033 23.682 25.8033 24.6317 25.2175 25.2175C24.6317 25.8033 23.682 25.8033 23.0962 25.2175L18.5 20.6213L13.9038 25.2175C13.318 25.8033 12.3683 25.8033 11.7825 25.2175C11.1967 24.6317 11.1967 23.682 11.7825 23.0962L16.3787 18.5L11.7825 13.9038Z" fill="#949494"/>
</svg>
